<svg width="500" height="500" viewBox="0 0 500 500" fill="none" xmlns="http://www.w3.org/2000/svg">
<g clip-path="url(#clip0_214_193)">
<path d="M472.995 1.25293C470.77 -0.185547 467.967 -0.398438 465.55 0.685548C432.413 15.5694 395.699 23.4375 359.376 23.4375C323.053 23.4375 286.338 15.5694 253.202 0.685548C251.165 -0.228516 248.835 -0.228516 246.799 0.685548C213.661 15.5694 176.948 23.4375 140.625 23.4375C104.302 23.4375 67.587 15.5694 34.4512 0.685548C29.3662 -1.59571 23.4375 2.24805 23.4375 7.81252V234.375C23.4375 234.451 23.4385 234.525 23.4404 234.6C24.1377 258.819 39.961 307.293 73.0567 356.49C102.536 400.311 156.629 460.672 246.922 499.369C247.905 499.79 248.953 500 249.999 500C251.046 500 252.094 499.789 253.077 499.369C343.37 460.672 397.464 400.311 426.942 356.49C460.038 307.292 475.861 258.818 476.559 234.6C476.56 234.525 476.561 234.451 476.561 234.375V7.81252C476.563 5.16212 475.22 2.69239 472.995 1.25293Z" fill="#1664ED"/>
<path d="M253.875 456.045C251.747 457.073 249.253 457.073 247.125 456.045C174.955 421.155 130.767 371.275 105.969 334.412C74.6338 287.83 63.5576 246.685 63 233.56V61.7928C63 56.7644 67.6836 53.034 72.5772 54.1883C95.0557 59.492 118.16 62.2254 141.126 62.2254C177.3 62.2254 213.813 55.4441 247.703 42.5164C249.507 41.8279 251.494 41.8279 253.298 42.5164C287.182 55.4422 323.7 62.2254 359.877 62.2254C382.842 62.2254 405.944 59.493 428.425 54.1883C433.318 53.034 438.002 56.7644 438.002 61.7928V233.56C437.444 246.685 426.369 287.83 395.033 334.412C370.236 371.274 326.053 421.149 253.875 456.045Z" fill="#EEF0F8"/>
<path d="M150.513 331.523C150.513 331.523 151.117 328.892 151.871 327.801C152.626 326.71 154.587 325.94 155.191 324.271C155.794 322.602 157.756 318.302 158.661 317.147C159.566 315.992 160.17 315.799 160.17 315.799C160.17 315.799 161.388 316.2 162.411 315.884C163.433 315.567 164.41 315.014 165.246 314.539C166.083 314.065 166.362 313.471 166.176 313.195C165.99 312.918 164.921 313.116 164.037 313.63C163.155 314.144 163.155 314.144 163.155 314.144L162.132 312.997C162.132 312.997 162.504 311.811 163.155 311.653C163.805 311.494 164.112 311.279 164.348 311.406C164.585 311.535 165.037 311.663 165.123 311.37L165.187 311.132C165.187 311.132 165.682 311.461 166.134 311.352C166.586 311.242 166.349 310.839 166.349 310.839C166.349 310.839 166.908 310.967 166.973 310.748C167.038 310.528 166.371 309.833 166.091 309.723C165.811 309.613 165.274 309.704 165.274 309.704C165.274 309.704 164.22 309.21 163.768 309.21C163.316 309.21 163.23 309.503 163.23 309.503C163.23 309.503 162.993 309.32 162.627 309.521C162.262 309.723 161.638 310.089 160.928 310.29C160.218 310.491 160.541 310.675 160.11 311.242C159.68 311.809 158.905 313.204 158.132 313.719C157.358 314.234 156.887 314.577 156.517 315.15C156.147 315.722 153.556 317.783 152.614 318.699C151.672 319.615 147.864 323.85 146.723 326.471C145.582 329.092 144.327 328.898 143.471 331.422C143.471 331.422 140.904 333.072 141.132 336.567C141.132 336.567 139.135 339.528 140.846 342.489C142.558 345.45 146.324 347.294 149.405 345.013C152.486 342.732 148.492 340.499 148.72 338.023C148.948 335.548 150.513 331.523 150.513 331.523Z" fill="#1664ED"/>
<path d="M207.474 322.848C207.474 322.848 208.209 322.45 208.943 322.734C209.678 323.019 210.279 321.086 210.212 319.496C210.146 317.905 211.233 317.536 211.14 315.372C211.047 313.209 211.016 312.998 210.737 312.945C210.737 312.945 211.109 312.18 210.675 312.101C210.241 312.022 210.241 312.022 210.241 312.022C210.241 312.022 210.396 311.653 209.93 311.31C209.93 311.31 209.776 310.809 209.155 310.809C209.155 310.809 208.969 310.492 208.473 310.492C207.977 310.492 208.349 311.653 207.946 312.312C207.543 312.972 207.605 313.156 207.109 314.317C206.612 315.478 205.713 317.668 204.969 318.142C204.224 318.618 202.604 319.413 202.281 319.458C201.958 319.504 201.42 319.138 199.481 320.1C197.543 321.061 194.582 323.031 190.436 324.13C186.291 325.229 182.199 325.458 180.799 327.657C179.399 329.855 177.104 331.211 173.714 336.43C170.324 341.648 165.239 344.532 166.53 351.261C167.822 357.991 172.907 359.364 177.185 356.136C181.463 352.909 186.386 336.43 189.373 334.232C192.359 332.035 203.821 328.189 204.709 324.894C204.709 324.894 206.445 323.274 207.474 322.848Z" fill="#1664ED"/>
<path d="M209.378 327.417C209.378 327.417 210.886 326.446 211.127 326.907C211.368 327.367 210.958 327.931 210.958 327.931C210.958 327.931 211.349 327.967 211.229 328.343C211.11 328.72 210.784 328.836 210.784 328.836C210.784 328.836 211.278 328.861 211.171 329.183C211.064 329.504 210.579 329.735 210.579 329.735C210.579 329.735 210.959 329.968 210.878 330.322C210.797 330.677 210.196 330.832 210.196 330.832C210.196 330.832 209.552 331.178 209.245 331.354C209.245 331.354 207.954 332.499 207.274 333.292C206.594 334.085 205.642 335.342 204.844 335.635C204.045 335.927 203.746 335.198 202.427 335.15C201.107 335.102 201.405 334.941 201.405 334.941C201.405 334.941 201.612 336.289 197.353 336.626C193.095 336.962 187.013 338.804 184.728 339.795C182.444 340.786 186.414 334.381 187.727 332.573C189.041 330.765 200.056 329.574 201.598 330.431C203.139 331.287 202.095 330.562 202.095 330.562L203.036 331.091C203.036 331.091 204.687 330.43 205.858 329.627C207.03 328.824 209.378 327.417 209.378 327.417Z" fill="#1664ED"/>
<path d="M149.232 332.725C149.232 332.725 153.08 331.146 155.066 329.563C155.066 329.563 155.262 329.322 156.121 329.132C156.981 328.942 159.387 327.654 160.126 327.277C160.866 326.9 161.286 327.239 162.14 327.453C162.995 327.668 163.637 327.551 164.162 327.873C164.687 328.195 165.458 328.652 165.338 329.046C165.338 329.046 165.92 329.5 165.827 329.769C165.734 330.038 165.445 330.127 164.952 329.813C164.459 329.499 163.677 329.024 163.209 329.083C162.742 329.141 161.949 328.898 161.949 328.898L160.975 329.327C160.975 329.327 160.415 329.699 160.773 330.257C161.13 330.815 162.491 330.161 163.275 330.68C164.059 331.198 163.511 331.339 163.263 331.408C163.016 331.478 162.135 331.14 161.394 331.393C160.652 331.646 159.648 331.862 158.971 331.634C158.293 331.405 158.308 331.014 157.688 331.166C157.068 331.317 154.166 333.338 153.021 334.736C151.875 336.134 151.713 338.431 150.109 338.028C148.506 337.626 148.965 332.9 149.232 332.725Z" fill="#1664ED"/>
<path d="M165.783 345.447C165.783 345.447 165.875 344.82 163.571 344.428C161.267 344.036 159.239 343.958 157.764 341.762C156.289 339.567 151.128 335.411 150.759 334.94C150.391 334.47 142.187 333.764 140.436 335.019C138.685 336.273 137.394 339.253 138.408 342.389C139.422 345.526 139.606 346.78 141.726 348.192C143.846 349.603 144.584 351.015 147.533 352.897C150.483 354.778 160.714 358.62 166.52 357.915C172.327 357.209 173.802 357.288 173.249 354.23C172.696 351.171 165.783 345.447 165.783 345.447Z" fill="#1664ED"/>
<path d="M141.871 331.371C141.871 331.371 142.364 333.776 144.199 334.188C146.033 334.6 148.26 334.697 150.861 336.715C153.462 338.732 161.542 347.718 163.628 348.773C165.714 349.829 161.757 353.625 155.304 354.626C148.85 355.628 141.011 350.549 138.515 345.609C136.019 340.669 135.827 339.446 135.827 339.446C135.827 339.446 137.141 336.266 137.032 335.457C137.032 335.457 136.703 335.453 134.984 335.867C133.265 336.282 132.778 335.257 130.921 334.132C129.063 333.007 129 331.247 129 331.247L129.761 331.669C129.761 331.669 128.508 330.839 130.026 328.309C131.543 325.78 133.763 325.285 134.405 325.251C135.047 325.218 135.996 326.054 136.369 326.006C136.369 326.006 137.503 326.38 138.324 326.064C139.145 325.748 139.279 326.721 139.279 326.721C139.279 326.721 139.403 326.559 139.763 326.87C139.763 326.87 140.288 326.819 140.531 327.112C140.773 327.406 141.001 327.62 141.558 327.857C142.115 328.094 142.599 328.243 142.532 329.16C142.465 330.077 141.871 331.371 141.871 331.371Z" fill="#1664ED"/>
<path d="M250.03 91.0732C249.169 91.0732 247.549 92.3298 246.031 95.0834L142.861 282.214C141.339 284.969 141.118 287.066 141.546 287.853C141.979 288.634 143.826 289.477 146.864 289.477H353.201C356.238 289.477 358.086 288.634 358.518 287.853C358.952 287.066 358.721 284.969 357.202 282.214L254.033 95.0834C252.513 92.3298 250.895 91.0732 250.03 91.0732ZM353.201 306.549H146.864C138.073 306.549 130.991 302.845 127.429 296.391C123.866 289.931 124.346 281.651 128.744 273.682L231.907 86.5439C236.305 78.5748 242.911 74.0001 250.03 74.0001C257.153 74.0001 263.76 78.5748 268.152 86.5439L371.321 273.682C375.719 281.651 376.195 289.931 372.637 296.391C369.074 302.845 361.989 306.549 353.201 306.549Z" fill="#5E7399"/>
<path d="M250.411 236.126C246.609 235.824 243.761 233.538 241.862 229.281C241.386 227.151 241.149 225.329 241.149 223.806L238.375 139.848C238.375 135.285 239.914 131.788 243 129.352C246.323 126.922 255.085 126.922 258.171 129.352C261.256 131.788 262.8 135.285 262.8 139.848L260.025 223.806C260.025 227.457 259.189 230.347 257.53 232.475C255.627 234.911 253.254 236.126 250.411 236.126Z" fill="#5E7399"/>
<path d="M249.386 264.351C245.496 263.91 242.822 261.907 241.366 258.347C241.118 257.459 241 256.458 241 255.343V254.342C241 250.782 242.576 248.116 245.737 246.333C249.14 244.556 252.425 244.556 255.586 246.333C258.746 248.116 260.331 250.782 260.331 254.342V255.343C260.331 258.011 259.233 260.235 257.045 262.016C255.104 263.795 252.547 264.577 249.386 264.351Z" fill="#5E7399"/>
<path d="M223.275 349.107V316.379H244.944V322.084H230.195V329.883H243.506V335.588H230.195V349.107H223.275ZM251.152 349.107H243.738L255.036 316.379H263.953L275.234 349.107H267.82L259.622 323.858H259.366L251.152 349.107ZM250.689 336.243H268.203V341.644H250.689V336.243ZM279.174 349.107V316.379H286.093V343.402H300.123V349.107H279.174ZM304.706 349.107V316.379H311.625V343.402H325.656V349.107H304.706ZM337.157 316.379V349.107H330.238V316.379H337.157ZM370.224 316.379V349.107H364.248L350.009 328.508H349.77V349.107H342.85V316.379H348.923L363.049 336.962H363.337V316.379H370.224Z" fill="#1664ED"/>
</g>
<defs>
<clipPath id="clip0_214_193">
<rect width="500" height="500" fill="white"/>
</clipPath>
</defs>
</svg>
